<svg width="15" height="18" viewBox="0 0 15 18" fill="none" xmlns="http://www.w3.org/2000/svg">
<path d="M7.40007 8.16665C8.32054 8.16665 9.06673 7.42045 9.06673 6.49998C9.06673 5.57951 8.32054 4.83331 7.40007 4.83331C6.47959 4.83331 5.7334 5.57951 5.7334 6.49998C5.7334 7.42045 6.47959 8.16665 7.40007 8.16665Z" stroke="black" stroke-width="1.66667" stroke-linecap="round" stroke-linejoin="round"/>
<path d="M7.40072 16.5C7.40072 16.5 13.234 12.4615 13.234 7.26923C13.234 5.73914 12.6195 4.27171 11.5255 3.18977C10.4315 2.10783 8.94781 1.5 7.40072 1.5C5.85362 1.5 4.36989 2.10783 3.27593 3.18977C2.18196 4.27171 1.56738 5.73914 1.56738 7.26923C1.56738 12.4615 7.40072 16.5 7.40072 16.5Z" stroke="black" stroke-width="1.66667" stroke-linecap="round" stroke-linejoin="round"/>
</svg>
