<svg width="7" height="13" viewBox="0 0 7 13" fill="none" xmlns="http://www.w3.org/2000/svg">
<path d="M1.33334 12.3331C1.13863 12.3335 0.949931 12.2657 0.800004 12.1415C0.629582 12.0002 0.522381 11.7969 0.502057 11.5764C0.481733 11.356 0.549955 11.1365 0.691671 10.9665L4.425 6.49979L0.825004 2.02479C0.685196 1.85263 0.61978 1.63184 0.643242 1.41131C0.666703 1.19077 0.777105 0.988686 0.950004 0.849791C1.12431 0.696425 1.35469 0.622728 1.58565 0.646457C1.81661 0.670185 2.02719 0.789187 2.16667 0.974791L6.19167 5.97479C6.44444 6.28229 6.44444 6.72562 6.19167 7.03312L2.025 12.0331C1.85545 12.2377 1.59853 12.3491 1.33334 12.3331Z" fill="#B1B9C0"/>
</svg>
