<svg width="15" height="14" viewBox="0 0 15 14" fill="none" xmlns="http://www.w3.org/2000/svg">
<path d="M4.97233 6.41663C4.97233 6.09446 5.2335 5.83329 5.55566 5.83329C5.87783 5.83329 6.139 6.09446 6.139 6.41663C6.139 6.73879 5.87783 6.99996 5.55566 6.99996C5.2335 6.99996 4.97233 6.73879 4.97233 6.41663Z" fill="black"/>
<path d="M4.97233 9.33329C4.97233 9.01113 5.2335 8.74996 5.55566 8.74996C5.87783 8.74996 6.139 9.01113 6.139 9.33329C6.139 9.65546 5.87783 9.91663 5.55566 9.91663C5.2335 9.91663 4.97233 9.65546 4.97233 9.33329Z" fill="black"/>
<path d="M7.30566 6.41663C7.30566 6.09446 7.56683 5.83329 7.889 5.83329C8.21116 5.83329 8.47233 6.09446 8.47233 6.41663C8.47233 6.73879 8.21116 6.99996 7.889 6.99996C7.56683 6.99996 7.30566 6.73879 7.30566 6.41663Z" fill="black"/>
<path d="M7.30566 9.33329C7.30566 9.01113 7.56683 8.74996 7.889 8.74996C8.21116 8.74996 8.47233 9.01113 8.47233 9.33329C8.47233 9.65546 8.21116 9.91663 7.889 9.91663C7.56683 9.91663 7.30566 9.65546 7.30566 9.33329Z" fill="black"/>
<path d="M9.639 6.41663C9.639 6.09446 9.90016 5.83329 10.2223 5.83329C10.5445 5.83329 10.8057 6.09446 10.8057 6.41663C10.8057 6.73879 10.5445 6.99996 10.2223 6.99996C9.90016 6.99996 9.639 6.73879 9.639 6.41663Z" fill="black"/>
<path d="M9.639 9.33329C9.639 9.01113 9.90016 8.74996 10.2223 8.74996C10.5445 8.74996 10.8057 9.01113 10.8057 9.33329C10.8057 9.65546 10.5445 9.91663 10.2223 9.91663C9.90016 9.91663 9.639 9.65546 9.639 9.33329Z" fill="black"/>
<path fill-rule="evenodd" clip-rule="evenodd" d="M5.55566 1.16663C5.87783 1.16663 6.139 1.42779 6.139 1.74996V2.33329H9.639V1.74996C9.639 1.42779 9.90016 1.16663 10.2223 1.16663C10.5445 1.16663 10.8057 1.42779 10.8057 1.74996V2.33329C12.4165 2.33329 13.7223 3.63913 13.7223 5.24996V9.91663C13.7223 11.5275 12.4165 12.8333 10.8057 12.8333H4.97233C3.3615 12.8333 2.05566 11.5275 2.05566 9.91663V5.24996C2.05566 3.63913 3.3615 2.33329 4.97233 2.33329V1.74996C4.97233 1.42779 5.2335 1.16663 5.55566 1.16663ZM4.97233 3.49996C4.00583 3.49996 3.22233 4.28346 3.22233 5.24996V9.91663C3.22233 10.8831 4.00583 11.6666 4.97233 11.6666H10.8057C11.7722 11.6666 12.5557 10.8831 12.5557 9.91663V5.24996C12.5557 4.28346 11.7722 3.49996 10.8057 3.49996C10.8057 3.82213 10.5445 4.08329 10.2223 4.08329C9.90016 4.08329 9.639 3.82213 9.639 3.49996H6.139C6.139 3.82213 5.87783 4.08329 5.55566 4.08329C5.2335 4.08329 4.97233 3.82213 4.97233 3.49996Z" fill="black"/>
</svg>
