<svg width="20" height="20" viewBox="0 0 20 20" fill="none" xmlns="http://www.w3.org/2000/svg">
    <path fill-rule="evenodd" clip-rule="evenodd" d="M1.6665 4.16667V3.33333C1.6665 2.875 2.0415 2.5 2.49984 2.5H16.6665C17.1248 2.5 17.4998 2.875 17.4998 3.33333V4.16667C17.4998 4.625 17.1248 5 16.6665 5H2.49984C2.0415 5 1.6665 4.625 1.6665 4.16667ZM16.6665 6.66667H2.49984C2.0415 6.66667 1.6665 7.04167 1.6665 7.5V12.5C1.6665 12.9583 2.0415 13.3333 2.49984 13.3333H16.6665C17.1248 13.3333 17.4998 12.9583 17.4998 12.5V7.5C17.4998 7.04167 17.1248 6.66667 16.6665 6.66667ZM2.49984 17.5H16.6665C17.1248 17.5 17.4998 17.125 17.4998 16.6667V15.8333C17.4998 15.375 17.1248 15 16.6665 15H2.49984C2.0415 15 1.6665 15.375 1.6665 15.8333V16.6667C1.6665 17.125 2.0415 17.5 2.49984 17.5Z" fill="#637381"/>
</svg>