<svg width="24" height="25" viewBox="0 0 24 25" fill="none" xmlns="http://www.w3.org/2000/svg">
<path d="M14.529 1.87988C16.5829 2.2325 18.5142 3.41856 19.7404 5.18163C19.9856 5.53424 20.2309 5.91891 20.4148 6.33564C19.6178 6.91264 18.8207 7.45759 18.0543 8.03459C17.9317 8.13076 17.8397 8.19487 17.6865 8.25898C17.3186 7.29731 16.6748 6.4318 15.8471 5.8548C15.234 5.43807 14.529 5.14957 13.8239 4.98929C14.0385 3.96351 14.2837 2.93772 14.529 1.87988ZM7.11034 2.8095C8.06066 2.48894 9.16425 3.00184 9.56277 3.93145C9.89998 4.63668 9.80802 5.5663 9.34819 6.17536C8.76573 6.9447 7.66213 7.2332 6.83444 6.78442C6.28264 6.49592 5.85346 5.95097 5.73084 5.30985C5.63887 4.82901 5.66953 4.31612 5.91477 3.86734C6.16002 3.35445 6.61985 3.00184 7.11034 2.8095ZM2.87988 13.7405C4.01413 13.7085 5.11773 13.7405 6.25198 13.7405C6.46657 15.0228 6.98771 16.2409 7.81541 17.2025C8.45918 17.9719 9.28687 18.5168 10.1759 18.8694C11.4021 19.3503 12.7509 19.4144 14.0385 19.0938C15.2034 18.8053 16.2457 18.1322 17.0121 17.1384C17.5332 16.4653 17.9317 15.6959 18.1463 14.8625C19.1579 15.151 20.1083 15.5356 21.1199 15.8562C21.0892 16.1768 20.9666 16.4973 20.844 16.8179C20.1696 18.6451 18.9127 20.2158 17.2879 21.2095C16.2457 21.8506 15.0501 22.2674 13.8545 22.4276C11.4941 22.7482 9.01098 22.2353 7.01837 20.8569C5.94543 20.1196 4.99511 19.1259 4.32069 17.9719C3.52365 16.7538 3.06382 15.2792 2.87988 13.7405Z" fill="white"/>
</svg>
