<svg width="40" height="40" viewBox="0 0 40 40" fill="none" xmlns="http://www.w3.org/2000/svg">
<rect width="40" height="40" rx="20" fill="#19AD33"/>
<path d="M23.8824 5C27.0353 5.51746 30 7.25802 31.8824 9.84534C32.2588 10.3628 32.6353 10.9273 32.9176 11.5389C31.6941 12.3856 30.4706 13.1853 29.2941 14.0321C29.1059 14.1732 28.9647 14.2673 28.7294 14.3614C28.1647 12.9501 27.1765 11.68 25.9059 10.8332C24.9647 10.2217 23.8824 9.79829 22.8 9.56308C23.1294 8.05774 23.5059 6.55239 23.8824 5ZM12.4941 6.36422C13.9529 5.8938 15.6471 6.64647 16.2588 8.01069C16.7765 9.04562 16.6353 10.4098 15.9294 11.3036C15.0353 12.4327 13.3412 12.856 12.0706 12.1974C11.2235 11.7741 10.5647 10.9743 10.3765 10.0335C10.2353 9.32787 10.2824 8.5752 10.6588 7.91661C11.0353 7.16394 11.7412 6.64647 12.4941 6.36422ZM6 22.4056C7.74118 22.3585 9.43529 22.4056 11.1765 22.4056C11.5059 24.2873 12.3059 26.0749 13.5765 27.4861C14.5647 28.6151 15.8353 29.4149 17.2 29.9323C19.0824 30.6379 21.1529 30.732 23.1294 30.2616C24.9176 29.8382 26.5176 28.8503 27.6941 27.392C28.4941 26.4042 29.1059 25.2751 29.4353 24.0521C30.9882 24.4754 32.4471 25.0399 34 25.5104C33.9529 25.9808 33.7647 26.4512 33.5765 26.9216C32.5412 29.603 30.6118 31.9081 28.1176 33.3664C26.5176 34.3072 24.6824 34.9188 22.8471 35.154C19.2235 35.6244 15.4118 34.8717 12.3529 32.8489C10.7059 31.767 9.24706 30.3087 8.21176 28.6151C6.98824 26.8275 6.28235 24.6636 6 22.4056Z" fill="white"/>
</svg>
