<svg width="20" height="20" viewBox="0 0 20 20" fill="none" xmlns="http://www.w3.org/2000/svg">
<path fill-rule="evenodd" clip-rule="evenodd" d="M4.16675 1.66675C2.78604 1.66675 1.66675 2.78604 1.66675 4.16675V6.66675C1.66675 8.04746 2.78604 9.16675 4.16675 9.16675H6.66675C8.04746 9.16675 9.16675 8.04746 9.16675 6.66675V4.16675C9.16675 2.78604 8.04746 1.66675 6.66675 1.66675H4.16675ZM3.33341 4.16675C3.33341 3.70651 3.70651 3.33341 4.16675 3.33341H6.66675C7.12699 3.33341 7.50008 3.70651 7.50008 4.16675V6.66675C7.50008 7.12699 7.12699 7.50008 6.66675 7.50008H4.16675C3.70651 7.50008 3.33341 7.12699 3.33341 6.66675V4.16675Z" fill="black"/>
<path fill-rule="evenodd" clip-rule="evenodd" d="M13.3334 1.66675C11.9527 1.66675 10.8334 2.78604 10.8334 4.16675V6.66675C10.8334 8.04746 11.9527 9.16675 13.3334 9.16675H15.8334C17.2141 9.16675 18.3334 8.04746 18.3334 6.66675V4.16675C18.3334 2.78604 17.2141 1.66675 15.8334 1.66675H13.3334ZM12.5001 4.16675C12.5001 3.70651 12.8732 3.33341 13.3334 3.33341H15.8334C16.2937 3.33341 16.6667 3.70651 16.6667 4.16675V6.66675C16.6667 7.12699 16.2937 7.50008 15.8334 7.50008H13.3334C12.8732 7.50008 12.5001 7.12699 12.5001 6.66675V4.16675Z" fill="black"/>
<path fill-rule="evenodd" clip-rule="evenodd" d="M1.66675 13.3334C1.66675 11.9527 2.78604 10.8334 4.16675 10.8334H6.66675C8.04746 10.8334 9.16675 11.9527 9.16675 13.3334V15.8334C9.16675 17.2141 8.04746 18.3334 6.66675 18.3334H4.16675C2.78604 18.3334 1.66675 17.2141 1.66675 15.8334V13.3334ZM4.16675 12.5001C3.70651 12.5001 3.33341 12.8732 3.33341 13.3334V15.8334C3.33341 16.2937 3.70651 16.6667 4.16675 16.6667H6.66675C7.12699 16.6667 7.50008 16.2937 7.50008 15.8334V13.3334C7.50008 12.8732 7.12699 12.5001 6.66675 12.5001H4.16675Z" fill="black"/>
<path fill-rule="evenodd" clip-rule="evenodd" d="M13.3334 10.8334C11.9527 10.8334 10.8334 11.9527 10.8334 13.3334V15.8334C10.8334 17.2141 11.9527 18.3334 13.3334 18.3334H15.8334C17.2141 18.3334 18.3334 17.2141 18.3334 15.8334V13.3334C18.3334 11.9527 17.2141 10.8334 15.8334 10.8334H13.3334ZM12.5001 13.3334C12.5001 12.8732 12.8732 12.5001 13.3334 12.5001H15.8334C16.2937 12.5001 16.6667 12.8732 16.6667 13.3334V15.8334C16.6667 16.2937 16.2937 16.6667 15.8334 16.6667H13.3334C12.8732 16.6667 12.5001 16.2937 12.5001 15.8334V13.3334Z" fill="black"/>
</svg>
