<svg width="24" height="25" viewBox="0 0 24 25" fill="none" xmlns="http://www.w3.org/2000/svg">
<path d="M15.0986 11.6335L16.0108 2.95996L20.9906 3.48337L19.6447 16.2843L16.8034 22.64L4.37629 19.993L3.12012 14.1608L10.1786 12.6654L8.63829 5.35267L13.5433 4.32081L15.0986 11.6335Z" fill="white"/>
<path d="M14.5155 16.0749C15.009 16.3141 15.4876 16.2693 15.682 15.9403C15.8614 15.6262 15.9511 15.2972 15.7717 14.9982C15.5922 14.6991 15.2931 14.5346 14.9193 14.5495C14.7099 14.5495 14.5155 14.7439 14.3959 14.8935C14.3062 14.9982 14.2463 15.1327 14.2314 15.2673C14.1865 15.5216 14.1865 15.9104 14.5155 16.0749Z" fill="#33A8A3"/>
<path d="M11.5131 15.2699C12.0066 15.5092 12.4851 15.4643 12.6795 15.1354C12.859 14.8213 12.9487 14.4923 12.7692 14.1932C12.5898 13.8941 12.2907 13.7296 11.9168 13.7446C11.7075 13.7446 11.5131 13.939 11.3934 14.0885C11.3037 14.1932 11.2439 14.3278 11.2289 14.4624C11.1841 14.7166 11.1841 15.1054 11.5131 15.2699Z" fill="#33A8A3"/>
</svg>
