<svg width="14" height="14" viewBox="0 0 14 14" fill="none" xmlns="http://www.w3.org/2000/svg">
<path fill-rule="evenodd" clip-rule="evenodd" d="M6.99984 5.24984C6.03334 5.24984 5.24984 6.03334 5.24984 6.99984C5.24984 7.96634 6.03334 8.74984 6.99984 8.74984C7.96634 8.74984 8.74984 7.96634 8.74984 6.99984C8.74984 6.03334 7.96634 5.24984 6.99984 5.24984ZM6.4165 6.99984C6.4165 6.67767 6.67767 6.4165 6.99984 6.4165C7.322 6.4165 7.58317 6.67767 7.58317 6.99984C7.58317 7.322 7.322 7.58317 6.99984 7.58317C6.67767 7.58317 6.4165 7.322 6.4165 6.99984Z" fill="black"/>
<path fill-rule="evenodd" clip-rule="evenodd" d="M12.734 6.58027C11.3994 4.17176 9.22364 2.9165 6.99984 2.9165C4.77604 2.9165 2.60031 4.17176 1.26569 6.58027C1.13522 6.81572 1.13361 7.10605 1.26001 7.3426C2.57341 9.80059 4.76147 11.0832 6.99984 11.0832C9.2382 11.0832 11.4263 9.80059 12.7397 7.3426C12.8661 7.10605 12.8645 6.81572 12.734 6.58027ZM6.99984 9.9165C5.2854 9.9165 3.52347 8.96707 2.38668 6.9699C3.53987 5.01425 5.29253 4.08317 6.99984 4.08317C8.70714 4.08317 10.4598 5.01425 11.613 6.9699C10.4762 8.96707 8.71427 9.9165 6.99984 9.9165Z" fill="black"/>
</svg>
