<svg width="14" height="14" viewBox="0 0 14 14" fill="none" xmlns="http://www.w3.org/2000/svg">
<path d="M10.4021 5.57341C10.5808 5.30535 10.5084 4.94318 10.2403 4.76447C9.97227 4.58577 9.61009 4.6582 9.43139 4.92626L7.81238 7.35477L5.86427 6.03979C5.49567 5.79099 4.99307 5.9113 4.7771 6.30006L3.57349 8.46655C3.41703 8.74817 3.5185 9.1033 3.80012 9.25976C4.08175 9.41622 4.43688 9.31475 4.59334 9.03313L5.58067 7.25594L7.50006 8.55153C7.84861 8.7868 8.32204 8.69352 8.5553 8.34363L10.4021 5.57341Z" fill="black"/>
<path fill-rule="evenodd" clip-rule="evenodd" d="M4.08342 1.1665C2.47258 1.1665 1.16675 2.47234 1.16675 4.08317V9.9165C1.16675 11.5273 2.47258 12.8332 4.08342 12.8332H9.91675C11.5276 12.8332 12.8334 11.5273 12.8334 9.9165V4.08317C12.8334 2.47234 11.5276 1.1665 9.91675 1.1665H4.08342ZM2.33341 4.08317C2.33341 3.11667 3.11692 2.33317 4.08342 2.33317H9.91675C10.8832 2.33317 11.6667 3.11667 11.6667 4.08317V9.9165C11.6667 10.883 10.8832 11.6665 9.91675 11.6665H4.08342C3.11692 11.6665 2.33341 10.883 2.33341 9.9165V4.08317Z" fill="black"/>
</svg>
