<svg width="1062" height="870" viewBox="0 0 1062 870" fill="none" xmlns="http://www.w3.org/2000/svg">
<g id="No Results">
<g id="circle">
<path id="Stroke 1" d="M34.0378 399V408" stroke="#D2D8DF" stroke-width="2.921" stroke-linecap="round"/>
<g id="Group 8">
<path id="Stroke 2" d="M13.823 403.875L21.1773 411.446" stroke="#D2D8DF" stroke-width="2.921" stroke-linecap="round"/>
<path id="Stroke 4" d="M5.22144 424.028H15.6203" stroke="#D2D8DF" stroke-width="2.921" stroke-linecap="round"/>
<path id="Stroke 6" d="M12.9792 444.539L20.3335 436.969" stroke="#D2D8DF" stroke-width="2.921" stroke-linecap="round"/>
</g>
<path id="Stroke 9" d="M34.0378 447V438" stroke="#D2D8DF" stroke-width="2.921" stroke-linecap="round"/>
<path id="Stroke 10" d="M49.0378 441L43.0378 435" stroke="#D2D8DF" stroke-width="2.921" stroke-linecap="round"/>
<path id="Stroke 11" d="M61.0378 426H52.0378" stroke="#D2D8DF" stroke-width="2.921" stroke-linecap="round"/>
<path id="Stroke 12" d="M55.0378 405L49.0378 411" stroke="#D2D8DF" stroke-width="2.921" stroke-linecap="round"/>
<path id="Stroke 13" d="M517.038 6V12" stroke="#D2D8DF" stroke-width="2.921" stroke-linecap="round"/>
<path id="Stroke 15" d="M499.038 24H505.038" stroke="#D2D8DF" stroke-width="2.921" stroke-linecap="round"/>
<path id="Stroke 16" d="M517.038 42V36" stroke="#D2D8DF" stroke-width="2.921" stroke-linecap="round"/>
<path id="Stroke 17" d="M532.038 24H526.038" stroke="#D2D8DF" stroke-width="2.921" stroke-linecap="round"/>
<path id="Stroke 18" d="M169.038 258V267" stroke="#D2D8DF" stroke-width="2.921" stroke-linecap="round"/>
<path id="Stroke 19" d="M142.038 285H151.038" stroke="#D2D8DF" stroke-width="2.921" stroke-linecap="round"/>
<path id="Stroke 20" d="M169.038 309V300" stroke="#D2D8DF" stroke-width="2.921" stroke-linecap="round"/>
<path id="Stroke 21" d="M193.038 285H184.038" stroke="#D2D8DF" stroke-width="2.921" stroke-linecap="round"/>
<g id="Group 42">
<path id="Stroke 22" d="M814.799 585.118C821.969 585.118 827.783 590.934 827.783 598.105C827.783 605.279 821.969 611.092 814.799 611.092C807.63 611.092 801.815 605.279 801.815 598.105" stroke="#D2D8DF" stroke-width="2.921" stroke-linecap="round"/>
<path id="Fill 26" fill-rule="evenodd" clip-rule="evenodd" d="M874.219 467.291C881.929 464.886 893.746 455.457 896.482 445.313C898.962 454.28 909.361 464.886 918.744 465.688C908.182 469.428 898.084 480.538 896.482 489.266C895.392 480.37 881.425 468.587 874.219 467.291Z" fill="#EBECEE"/>
<path id="Fill 28" fill-rule="evenodd" clip-rule="evenodd" d="M82.8523 581.117C86.7083 579.914 92.6145 575.201 93.9821 570.129C95.2225 574.61 100.421 579.914 105.112 580.317C99.8323 582.184 94.7844 587.74 93.9821 592.104C93.4371 587.656 86.4536 581.764 82.8523 581.117Z" fill="#EBECEE"/>
<path id="Fill 30" fill-rule="evenodd" clip-rule="evenodd" d="M154.41 163.791C154.41 169.355 149.902 173.862 144.342 173.862C138.78 173.862 134.274 169.355 134.274 163.791C134.274 158.23 138.78 153.721 144.342 153.721C149.902 153.721 154.41 158.23 154.41 163.791Z" fill="#D1D8DF"/>
<path id="Fill 32" fill-rule="evenodd" clip-rule="evenodd" d="M826.695 190.832C826.695 200.128 819.159 207.664 809.868 207.664C800.571 207.664 793.038 200.128 793.038 190.832C793.038 181.536 800.571 174 809.868 174C819.159 174 826.695 181.536 826.695 190.832Z" fill="#EBECEE"/>
<path id="Fill 34" fill-rule="evenodd" clip-rule="evenodd" d="M1059.78 145.229C1059.78 152.604 1053.8 158.581 1046.43 158.581C1039.06 158.581 1033.08 152.604 1033.08 145.229C1033.08 137.854 1039.06 131.877 1046.43 131.877C1053.8 131.877 1059.78 137.854 1059.78 145.229Z" fill="#EBECEE"/>
<path id="Stroke 36" fill-rule="evenodd" clip-rule="evenodd" d="M342.568 768.803C342.568 773.452 338.801 777.22 334.153 777.22C329.508 777.22 325.741 773.452 325.741 768.803C325.741 764.154 329.508 760.386 334.153 760.386C338.801 760.386 342.568 764.154 342.568 768.803Z" stroke="#D2D8DF" stroke-width="2.921" stroke-linecap="round"/>
<path id="Stroke 38" fill-rule="evenodd" clip-rule="evenodd" d="M337.562 99.0952C337.562 104.659 333.054 109.166 327.494 109.166C321.934 109.166 317.427 104.659 317.427 99.0952C317.427 93.5339 321.934 89.0248 327.494 89.0248C333.054 89.0248 337.562 93.5339 337.562 99.0952Z" stroke="#D2D8DF" stroke-width="2.921" stroke-linecap="round"/>
<path id="Stroke 40" fill-rule="evenodd" clip-rule="evenodd" d="M594.37 862.009C587.937 864.457 580.737 861.224 578.29 854.792C575.842 848.356 579.071 841.152 585.507 838.706C591.938 836.258 599.138 839.488 601.586 845.924C604.036 852.359 600.804 859.561 594.37 862.009Z" stroke="#D2D8DF" stroke-width="2.921" stroke-linecap="round"/>
</g>
</g>
<g id="search">
<g id="documents">
<path id="Fill 1" fill-rule="evenodd" clip-rule="evenodd" d="M590.535 624H344.521C327.206 624 313.032 609.784 313.032 592.41V241.582C313.032 224.209 327.206 210 344.521 210H590.535C607.858 210 622.032 224.209 622.032 241.582V592.41C622.032 609.784 607.858 624 590.535 624Z" fill="#E0E2EE"/>
<path id="Fill 3" fill-rule="evenodd" clip-rule="evenodd" d="M569.535 639H323.521C306.206 639 292.032 624.784 292.032 607.41V256.582C292.032 239.209 306.206 225 323.521 225H569.535C586.858 225 601.032 239.209 601.032 256.582V607.41C601.032 624.784 586.858 639 569.535 639Z" fill="#E8EBF2"/>
<path id="Fill 5" fill-rule="evenodd" clip-rule="evenodd" d="M549.109 650.842H302.587C285.235 650.842 271.032 636.685 271.032 619.383V270.008C271.032 252.706 285.235 238.556 302.587 238.556H549.109C566.468 238.556 580.671 252.706 580.671 270.008V619.383C580.671 636.685 566.468 650.842 549.109 650.842Z" fill="#D8DBEA"/>
<path id="Fill 8" fill-rule="evenodd" clip-rule="evenodd" d="M549.109 650.842H302.587C285.235 650.842 271.032 636.685 271.032 619.383V270.008C271.032 252.706 285.235 238.556 302.587 238.556H549.109C566.468 238.556 580.671 252.706 580.671 270.008V619.383C580.671 636.685 566.468 650.842 549.109 650.842Z" fill="#F1F2F7"/>
<path id="Fill 11" fill-rule="evenodd" clip-rule="evenodd" d="M513.575 345H331.489C326.289 345 322.032 340.951 322.032 336.003C322.032 331.049 326.289 327 331.489 327H513.575C518.775 327 523.032 331.049 523.032 336.003C523.032 340.951 518.775 345 513.575 345Z" fill="#E0E2EE"/>
<path id="Fill 13" fill-rule="evenodd" clip-rule="evenodd" d="M513.575 399H331.489C326.289 399 322.032 394.951 322.032 390.003C322.032 385.049 326.289 381 331.489 381H513.575C518.775 381 523.032 385.049 523.032 390.003C523.032 394.951 518.775 399 513.575 399Z" fill="#E0E2EE"/>
<path id="Fill 15" fill-rule="evenodd" clip-rule="evenodd" d="M513.575 453H331.489C326.289 453 322.032 448.951 322.032 444.003C322.032 439.056 326.289 435 331.489 435H513.575C518.775 435 523.032 439.056 523.032 444.003C523.032 448.951 518.775 453 513.575 453Z" fill="#E0E2EE"/>
<path id="Fill 17" fill-rule="evenodd" clip-rule="evenodd" d="M513.575 507H331.489C326.289 507 322.032 502.951 322.032 498.003C322.032 493.049 326.289 489 331.489 489H513.575C518.775 489 523.032 493.049 523.032 498.003C523.032 502.951 518.775 507 513.575 507Z" fill="#E0E2EE"/>
<path id="Fill 19" fill-rule="evenodd" clip-rule="evenodd" d="M426.535 561H331.529C326.307 561 322.032 556.951 322.032 552.003C322.032 547.049 326.307 543 331.529 543H426.535C431.757 543 436.032 547.049 436.032 552.003C436.032 556.951 431.757 561 426.535 561Z" fill="#E0E2EE"/>
</g>
<g id="search_2">
<path id="Fill 21" fill-rule="evenodd" clip-rule="evenodd" d="M618.297 491.21C581.887 527.614 525.519 531.721 484.597 503.615C479.367 499.958 474.39 495.851 469.748 491.21C467.358 488.829 465.106 486.371 462.983 483.783C458.738 478.615 455.02 473.104 451.974 467.409C446.607 457.791 442.957 447.585 440.965 437.036C434.536 403.952 444.148 368.342 469.748 342.755C495.408 317.091 531.024 307.542 564.113 313.908C574.657 315.962 584.872 319.61 594.492 324.916C600.195 328.03 605.631 331.748 610.807 335.992C613.388 338.106 615.846 340.366 618.228 342.755C622.878 347.396 627.046 352.366 630.635 357.602C658.753 398.51 654.638 454.875 618.297 491.21Z" fill="white" fill-opacity="0.1"/>
<path id="Fill 23" fill-rule="evenodd" clip-rule="evenodd" d="M608.108 484.041C570.229 521.927 508.842 521.92 470.955 484.041C433.117 446.203 433.117 384.809 471.004 346.929C508.842 309.091 570.229 309.091 608.066 346.929C645.946 384.809 645.946 446.203 608.108 484.041ZM627.549 327.467C578.927 278.844 500.136 278.844 451.514 327.467C402.899 376.082 402.857 454.921 451.472 503.543C495.724 547.781 565.083 551.771 613.867 515.449C618.632 511.896 623.221 507.914 627.598 503.543C631.968 499.166 635.951 494.577 639.496 489.813C675.818 441.021 671.794 371.711 627.549 327.467Z" fill="#E0E2EE"/>
<path id="Fill 25" fill-rule="evenodd" clip-rule="evenodd" d="M818.898 686.825L816.857 688.866C803.352 702.378 781.238 702.378 767.726 688.866L643.032 564.172L694.204 513L818.898 637.694C832.41 651.206 832.41 673.313 818.898 686.825Z" fill="url(#paint0_linear_34_31118)"/>
<path id="Fill 27" fill-rule="evenodd" clip-rule="evenodd" d="M642.184 486L679.032 522.848L652.872 549L616.032 512.152C620.894 508.527 625.569 504.463 630.043 500.004C634.503 495.545 638.566 490.862 642.184 486Z" fill="#E0E2EE"/>
<path id="Fill 29" fill-rule="evenodd" clip-rule="evenodd" d="M817.032 636.161L766.186 687L757.032 677.839L807.871 627L817.032 636.161Z" fill="#D4C8FA"/>
<path id="Fill 31" fill-rule="evenodd" clip-rule="evenodd" d="M697.032 514.76L644.793 567L637.032 559.24L689.271 507L697.032 514.76Z" fill="url(#paint1_linear_34_31118)"/>
<path id="Fill 33" fill-rule="evenodd" clip-rule="evenodd" d="M583.032 333.896L454.921 462C450.097 453.353 446.816 444.178 445.032 434.694L555.724 324C565.202 325.853 574.385 329.126 583.032 333.896Z" fill="white" fill-opacity="0.5"/>
<path id="Fill 35" fill-rule="evenodd" clip-rule="evenodd" d="M625.032 364.345L486.531 495C481.571 491.735 476.85 488.06 472.447 483.907C470.181 481.769 468.038 479.576 466.032 477.26L606.22 345C608.675 346.899 611.007 348.921 613.266 351.059C617.668 355.212 621.629 359.659 625.032 364.345Z" fill="white" fill-opacity="0.5"/>
</g>
</g>
</g>
<defs>
<linearGradient id="paint0_linear_34_31118" x1="736.032" y1="420" x2="550.032" y2="606" gradientUnits="userSpaceOnUse">
<stop stop-color="#906BFF"/>
<stop offset="1" stop-color="#D4C8FA"/>
</linearGradient>
<linearGradient id="paint1_linear_34_31118" x1="667.032" y1="477" x2="607.032" y2="537" gradientUnits="userSpaceOnUse">
<stop stop-color="#906BFF"/>
<stop offset="1" stop-color="#D4C8FA"/>
</linearGradient>
</defs>
</svg>
