<svg width="26" height="26" viewBox="0 0 26 26" fill="none" xmlns="http://www.w3.org/2000/svg">
<rect width="26" height="26" rx="13" fill="white"/>
<path d="M13.3688 3.25C14.2544 3.25 15.14 3.4142 15.9602 3.74172L14.2867 6.61127C13.7125 6.44706 13.122 6.36541 12.5155 6.36541C11.515 6.34836 10.5477 6.57807 9.67822 7.05363L11.794 3.41421C12.319 3.3155 12.8439 3.25 13.3688 3.25Z" fill="#010101"/>
<path d="M12.9094 22.8559C7.71045 22.8559 3.25 18.7741 3.25 13.5285L6.31605 11.7582C6.2335 12.1844 6.2012 12.6276 6.2012 13.07V13.0861C6.2012 16.7911 9.20265 19.7907 12.9094 19.7907C16.6161 19.7907 19.6337 16.8072 19.6337 13.1678C19.6337 11.2664 18.7965 9.46287 17.3537 8.23358L18.9939 5.39723C21.2408 7.23309 22.75 9.98779 22.75 13.1185C22.75 18.4627 18.3542 22.8559 12.9094 22.8559Z" fill="#010101"/>
</svg>
