<svg width="24" height="25" viewBox="0 0 24 25" fill="none" xmlns="http://www.w3.org/2000/svg">
<path d="M12.5057 2.52002C13.4322 2.52002 14.3587 2.69088 15.2167 3.03165L13.466 6.01743C12.8653 5.84657 12.2476 5.76161 11.613 5.76161C10.5664 5.74387 9.55443 5.98288 8.64482 6.47771L10.8583 2.69088C11.4074 2.58818 11.9566 2.52002 12.5057 2.52002Z" fill="white"/>
<path d="M12.0251 22.92C6.58624 22.92 1.91992 18.6729 1.91992 13.2148L5.12749 11.3728C5.04113 11.8163 5.00733 12.2775 5.00733 12.7378V12.7546C5.00733 16.6096 8.14731 19.7307 12.0251 19.7307C15.9029 19.7307 19.0598 16.6264 19.0598 12.8395C19.0598 10.8611 18.184 8.98453 16.6745 7.70545L18.3905 4.75422C20.741 6.66444 22.3199 9.53071 22.3199 12.7882C22.3199 18.3489 17.7212 22.92 12.0251 22.92Z" fill="white"/>
</svg>
