<svg width="26" height="26" viewBox="0 0 26 26" fill="none" xmlns="http://www.w3.org/2000/svg">
<path d="M13.4917 0C14.6726 0 15.8534 0.217757 16.9469 0.652082L14.7156 4.45748C13.9499 4.23973 13.1627 4.13144 12.3539 4.13144C11.02 4.10883 9.73026 4.41346 8.57096 5.04412L11.392 0.217758C12.0919 0.0868652 12.7918 0 13.4917 0Z" fill="#010101"/>
<path d="M12.8792 26C5.94727 26 0 20.587 0 13.6307L4.08807 11.2829C3.978 11.8481 3.93493 12.436 3.93493 13.0226V13.044C3.93493 17.9573 7.93687 21.9352 12.8792 21.9352C17.8215 21.9352 21.8449 17.9787 21.8449 13.1523C21.8449 10.6308 20.7287 8.23908 18.8049 6.60888L20.9919 2.84751C23.9877 5.2821 26 8.93519 26 13.0869C26 20.1741 20.1389 26 12.8792 26Z" fill="#010101"/>
</svg>
