<svg width="14" height="14" viewBox="0 0 14 14" fill="none" xmlns="http://www.w3.org/2000/svg">
<path d="M8.71205 7.68381C8.96325 7.78417 9.08943 8.07326 8.93893 8.29803C8.76726 8.55442 8.5455 8.7756 8.28526 8.94734C7.88791 9.20956 7.41985 9.34396 6.94391 9.33249C6.46798 9.32104 6.00693 9.16426 5.62266 8.88323C5.37099 8.69916 5.16013 8.46757 5.001 8.20321C4.86149 7.97146 5.00144 7.68878 5.25718 7.60062C5.51291 7.51247 5.78627 7.65749 5.95924 7.86547C6.0298 7.95031 6.11086 8.02668 6.20092 8.09255C6.42387 8.2556 6.69136 8.34656 6.96749 8.35321C7.24363 8.35986 7.51518 8.28188 7.74572 8.12974C7.83885 8.06828 7.92349 7.99591 7.99806 7.91456C8.18083 7.71515 8.46086 7.58345 8.71205 7.68381Z" fill="black"/>
<path d="M5.83342 5.24984C5.83342 4.92767 5.57225 4.6665 5.25008 4.6665C4.92792 4.6665 4.66675 4.92767 4.66675 5.24984V5.83317C4.66675 6.15534 4.92792 6.4165 5.25008 6.4165C5.57225 6.4165 5.83342 6.15534 5.83342 5.83317V5.24984Z" fill="black"/>
<path d="M9.33342 5.24984C9.33342 4.92767 9.07225 4.6665 8.75008 4.6665C8.42792 4.6665 8.16675 4.92767 8.16675 5.24984V5.83317C8.16675 6.15534 8.42792 6.4165 8.75008 6.4165C9.07225 6.4165 9.33342 6.15534 9.33342 5.83317V5.24984Z" fill="black"/>
<path fill-rule="evenodd" clip-rule="evenodd" d="M1.16675 6.99984C1.16675 3.77818 3.77842 1.1665 7.00008 1.1665C10.2217 1.1665 12.8334 3.77818 12.8334 6.99984C12.8334 10.2215 10.2217 12.8332 7.00008 12.8332C3.77842 12.8332 1.16675 10.2215 1.16675 6.99984ZM7.00008 2.33317C4.42275 2.33317 2.33341 4.42251 2.33341 6.99984C2.33341 9.57717 4.42275 11.6665 7.00008 11.6665C9.57741 11.6665 11.6667 9.57717 11.6667 6.99984C11.6667 4.42251 9.57741 2.33317 7.00008 2.33317Z" fill="black"/>
</svg>
