  <svg width="20" height="20" viewBox="0 0 20 20" fill="none" xmlns="http://www.w3.org/2000/svg">
    <path fill-rule="evenodd" clip-rule="evenodd" d="M2.49984 2.5H16.6665C17.1248 2.5 17.4998 2.875 17.4998 3.33333V8.33333C17.4998 8.79167 17.1248 9.16667 16.6665 9.16667H2.49984C2.0415 9.16667 1.6665 8.79167 1.6665 8.33333V3.33333C1.6665 2.875 2.0415 2.5 2.49984 2.5ZM2.49984 10.8333H16.6665C17.1248 10.8333 17.4998 11.2083 17.4998 11.6667V16.6667C17.4998 17.125 17.1248 17.5 16.6665 17.5H2.49984C2.0415 17.5 1.6665 17.125 1.6665 16.6667V11.6667C1.6665 11.2083 2.0415 10.8333 2.49984 10.8333Z" fill="#637381"/>
  </svg>