<svg width="24" height="25" viewBox="0 0 24 25" fill="none" xmlns="http://www.w3.org/2000/svg">
<path fill-rule="evenodd" clip-rule="evenodd" d="M15.8909 18.9358C15.0909 18.9358 14.5818 18.796 14.2182 18.3765C13.9273 18.027 13.7818 17.4678 13.7818 16.629V11.596H17.3455L16.9091 7.82123H13.8545V4.39597V1.59985C13.8545 1.59985 12.4727 1.66976 12.0364 1.73967C9.70909 1.87947 8.18182 3.41733 8.18182 5.095V8.03093L6 8.17074V11.6659H8.18182V17.4678C8.18182 19.2154 8.69091 20.6134 9.63636 21.662C10.5818 22.7105 12.0364 23.1999 13.9273 23.1999C14.8727 23.1999 15.6 23.1299 16.2546 23.06C17.2727 22.8503 18 22.0115 18 20.963V18.4464C17.2727 18.7261 16.5455 18.9358 15.8909 18.9358Z" fill="white"/>
</svg>
