<svg width="14" height="14" viewBox="0 0 14 14" fill="none" xmlns="http://www.w3.org/2000/svg">
<path fill-rule="evenodd" clip-rule="evenodd" d="M6.96067 0.458252C3.34791 0.458252 0.419189 3.38697 0.419189 6.99974C0.419189 10.6125 3.34791 13.5412 6.96067 13.5412C10.5734 13.5412 13.5022 10.6125 13.5022 6.99974C13.5022 5.26483 12.813 3.60097 11.5862 2.37421C10.3594 1.14744 8.69558 0.458252 6.96067 0.458252ZM7.61483 9.61631C7.61483 9.97758 7.32196 10.2705 6.96068 10.2705C6.59941 10.2705 6.30653 9.97758 6.30653 9.61631V6.34557C6.30653 5.98429 6.59941 5.69142 6.96068 5.69142C7.32196 5.69142 7.61483 5.98429 7.61483 6.34557V9.61631ZM6.30653 4.38312C6.30653 4.7444 6.59941 5.03727 6.96068 5.03727C7.32196 5.03727 7.61483 4.7444 7.61483 4.38312C7.61483 4.02184 7.32196 3.72897 6.96068 3.72897C6.59941 3.72897 6.30653 4.02184 6.30653 4.38312Z" fill="#B1B9C0"/>
</svg>
