<svg width="25" height="24" viewBox="0 0 25 24" fill="none" xmlns="http://www.w3.org/2000/svg">
<path d="M18.7998 8C18.7998 6.4087 18.1677 4.88258 17.0424 3.75736C15.9172 2.63214 14.3911 2 12.7998 2C11.2085 2 9.68238 2.63214 8.55716 3.75736C7.43195 4.88258 6.7998 6.4087 6.7998 8C6.7998 15 3.7998 17 3.7998 17H21.7998C21.7998 17 18.7998 15 18.7998 8Z" stroke="#212B36" stroke-width="2" stroke-linecap="round" stroke-linejoin="round"/>
<path d="M14.5298 21C14.354 21.3031 14.1017 21.5547 13.798 21.7295C13.4944 21.9044 13.1502 21.9965 12.7998 21.9965C12.4494 21.9965 12.1052 21.9044 11.8016 21.7295C11.498 21.5547 11.2456 21.3031 11.0698 21" stroke="#212B36" stroke-width="2" stroke-linecap="round" stroke-linejoin="round"/>
</svg>
