<svg width="22" height="19" viewBox="0 0 22 19" fill="none" xmlns="http://www.w3.org/2000/svg">
<path fill-rule="evenodd" clip-rule="evenodd" d="M20.68 13.9417L13.6492 2.28173C13.0714 1.3779 12.0727 0.830994 11 0.830994C9.9273 0.830994 8.9286 1.3779 8.35084 2.28173L1.32001 13.9417C0.814511 14.7844 0.797039 15.8327 1.27418 16.6917C1.82599 17.6589 2.85564 18.2543 3.96918 18.2501H18.0308C19.1368 18.2619 20.1647 17.6815 20.7258 16.7284C21.2173 15.86 21.1997 14.7935 20.68 13.9417ZM11 14.5834C10.4937 14.5834 10.0833 14.173 10.0833 13.6667C10.0833 13.1605 10.4937 12.7501 11 12.7501C11.5063 12.7501 11.9167 13.1605 11.9167 13.6667C11.9167 14.173 11.5063 14.5834 11 14.5834ZM11 11.8334C11.5063 11.8334 11.9167 11.423 11.9167 10.9167V7.25006C11.9167 6.7438 11.5063 6.33339 11 6.33339C10.4937 6.33339 10.0833 6.7438 10.0833 7.25006V10.9167C10.0833 11.423 10.4937 11.8334 11 11.8334Z" fill="#FF9B05"/>
</svg>
