<svg width="40" height="40" viewBox="0 0 40 40" fill="none" xmlns="http://www.w3.org/2000/svg">
<rect width="40" height="40" rx="20" fill="#19AD33"/>
<path d="M23.605 6C26.5328 6.49544 29.2857 8.1619 31.0336 10.6391C31.3832 11.1345 31.7328 11.675 31.995 12.2605C30.8588 13.0712 29.7227 13.8369 28.6303 14.6476C28.4555 14.7827 28.3244 14.8728 28.1059 14.9629C27.5815 13.6117 26.6639 12.3956 25.484 11.5849C24.6101 10.9994 23.605 10.594 22.6 10.3688C22.9059 8.92758 23.2555 7.48631 23.605 6ZM13.0303 7.30615C14.3849 6.85575 15.958 7.57639 16.5261 8.88254C17.0067 9.87341 16.8756 11.1796 16.2202 12.0353C15.3899 13.1163 13.8168 13.5216 12.637 12.8911C11.8504 12.4857 11.2387 11.72 11.0639 10.8192C10.9328 10.1436 10.9765 9.42301 11.3261 8.79246C11.6756 8.07182 12.3311 7.57639 13.0303 7.30615ZM7 22.6647C8.61681 22.6196 10.1899 22.6647 11.8067 22.6647C12.1126 24.4662 12.8555 26.1777 14.0353 27.5289C14.9529 28.6099 16.1328 29.3756 17.4 29.871C19.1479 30.5466 21.0706 30.6367 22.9059 30.1863C24.5664 29.7809 26.0521 28.8351 27.1445 27.4389C27.8874 26.493 28.4555 25.4121 28.7613 24.241C30.2034 24.6464 31.558 25.1869 33 25.6373C32.9563 26.0877 32.7815 26.5381 32.6067 26.9885C31.6454 29.5557 29.8538 31.7627 27.5378 33.1589C26.0521 34.0597 24.3479 34.6452 22.6437 34.8704C19.279 35.3208 15.7395 34.6002 12.8992 32.6635C11.3697 31.6275 10.0151 30.2313 9.05378 28.6099C7.91765 26.8984 7.26218 24.8266 7 22.6647Z" fill="white"/>
</svg>
