<svg width="40" height="40" viewBox="0 0 40 40" fill="none" xmlns="http://www.w3.org/2000/svg">
<g opacity="0.9">
<rect width="40" height="40" rx="20" fill="#35B8B2"/>
<path d="M23.5571 18.8874L24.8181 6.89844L31.7014 7.62191L29.841 25.3159L25.9136 34.1009L8.73633 30.4422L7 22.3807L16.7565 20.3137L14.6275 10.2057L21.4074 8.77946L23.5571 18.8874Z" fill="white"/>
<path d="M22.7513 25.0267C23.4334 25.3574 24.0949 25.2954 24.3636 24.8407C24.6116 24.4066 24.7356 23.9518 24.4876 23.5384C24.2396 23.125 23.8261 22.8976 23.3094 22.9183C23.02 22.9183 22.7513 23.187 22.5859 23.3937C22.4619 23.5384 22.3792 23.7244 22.3585 23.9105C22.2965 24.2619 22.2965 24.7993 22.7513 25.0267Z" fill="#33A8A3"/>
<path d="M18.6006 23.9139C19.2828 24.2446 19.9442 24.1826 20.2129 23.7279C20.461 23.2938 20.585 22.839 20.337 22.4256C20.0889 22.0122 19.6755 21.7848 19.1587 21.8055C18.8694 21.8055 18.6006 22.0742 18.4353 22.2809C18.3112 22.4256 18.2286 22.6117 18.2079 22.7977C18.1459 23.1491 18.1459 23.6865 18.6006 23.9139Z" fill="#33A8A3"/>
</g>
</svg>
