<svg width="40" height="40" viewBox="0 0 40 40" fill="none" xmlns="http://www.w3.org/2000/svg">
<rect width="40" height="40" rx="20" fill="#F2DF0C"/>
<path d="M20.4917 7C21.6726 7 22.8534 7.21776 23.9469 7.65208L21.7156 11.4575C20.9499 11.2397 20.1627 11.1314 19.3539 11.1314C18.02 11.1088 16.7303 11.4135 15.571 12.0441L18.392 7.21776C19.0919 7.08687 19.7918 7 20.4917 7Z" fill="#010101"/>
<path d="M19.8792 33C12.9473 33 7 27.587 7 20.6307L11.0881 18.2829C10.978 18.8481 10.9349 19.436 10.9349 20.0226V20.044C10.9349 24.9573 14.9369 28.9352 19.8792 28.9352C24.8215 28.9352 28.8449 24.9787 28.8449 20.1523C28.8449 17.6308 27.7287 15.2391 25.8049 13.6089L27.9919 9.84751C30.9877 12.2821 33 15.9352 33 20.0869C33 27.1741 27.1389 33 19.8792 33Z" fill="#010101"/>
</svg>
