<svg width="40" height="40" viewBox="0 0 40 40" fill="none" xmlns="http://www.w3.org/2000/svg">
<rect width="40" height="40" rx="20" fill="#FF5A00"/>
<path fill-rule="evenodd" clip-rule="evenodd" d="M24.5394 28.0647C23.6061 28.0647 23.0121 27.9029 22.5879 27.4175C22.2485 27.0129 22.0788 26.3657 22.0788 25.3948V19.5696H26.2364L25.7273 15.2007H22.1636V11.2362V8C22.1636 8 20.5515 8.08092 20.0424 8.16182C17.3273 8.32363 15.5455 10.1036 15.5455 12.0453V15.4434L13 15.6052V19.6505H15.5455V26.3657C15.5455 28.3883 16.1394 30.0065 17.2424 31.2201C18.3455 32.4336 20.0424 33 22.2485 33C23.3515 33 24.2 32.9191 24.9636 32.8382C26.1515 32.5955 27 31.6246 27 30.411V27.4984C26.1515 27.822 25.303 28.0647 24.5394 28.0647Z" fill="white"/>
</svg>
