<svg width="18" height="15" viewBox="0 0 13 10" fill="none" xmlns="http://www.w3.org/2000/svg">
<path d="M0.688853 3.88362L3.51514 1.05733C3.86367 0.708827 4.1579 0.579038 4.78947 0.579038H11.4211C12.2931 0.579038 13 1.28596 13 2.15798V7.8422C13 8.71422 12.2931 9.42114 11.4211 9.42114H4.78947C4.1579 9.42114 3.86367 9.29126 3.51514 8.94275L0.688853 6.11656C0.0722427 5.49995 0.0722427 4.50023 0.688853 3.88362ZM10.0089 3.43703L9.19464 2.6228L7.63158 4.18586L6.06848 2.6228L5.25425 3.43703L6.81732 5.00012L5.25425 6.56318L6.06848 7.37742L7.63158 5.81435L9.19464 7.37742L10.0089 6.56318L8.44581 5.00012L10.0089 3.43703Z" fill="#637381"/>
</svg>
