<svg width="20" height="19" viewBox="0 0 20 19" fill="none" xmlns="http://www.w3.org/2000/svg">
<path fill-rule="evenodd" clip-rule="evenodd" d="M11.323 3.80103H2.5C1.25725 3.80103 0.25 4.80828 0.25 6.05103V10.551C0.25 11.7938 1.25725 12.801 2.5 12.801H2.917C2.566 13.9395 2.07325 14.934 1.366 15.7178C1.04725 16.0553 0.903251 16.5075 0.966251 16.9568C1.02925 17.4068 1.29475 17.8028 1.68625 18.033C2.08525 18.2753 2.55175 18.5445 2.90125 18.7463C3.5185 19.1033 4.30225 18.9758 4.77475 18.4418L4.77775 18.4388C6.14725 16.8593 7.225 14.991 8.017 12.8385C8.0215 12.8265 8.026 12.8138 8.02975 12.801H11.2922L16.3428 15.831C17.0373 16.248 17.9035 16.2593 18.6085 15.8595C19.3142 15.4605 19.75 14.712 19.75 13.902V3.22802C19.75 2.44802 19.3465 1.72428 18.6828 1.31403C18.0198 0.903782 17.191 0.867023 16.4935 1.21577L11.323 3.80103ZM4.47925 12.801C4.0525 14.3573 3.40825 15.7005 2.458 16.7468L2.461 16.7483C2.85175 16.986 3.3085 17.25 3.65125 17.448C4.80025 16.122 5.72125 14.5703 6.4255 12.801H4.47925ZM12.25 11.6265V5.01453L17.1648 2.55752C17.3973 2.44127 17.6733 2.45327 17.8945 2.58977C18.1158 2.72702 18.25 2.96777 18.25 3.22802V13.902C18.25 14.172 18.1045 14.421 17.8697 14.5545C17.6342 14.6873 17.3455 14.6835 17.1145 14.5448L12.25 11.6265ZM10.75 5.30103V11.301H2.5C2.086 11.301 1.75 10.965 1.75 10.551V6.05103C1.75 5.63703 2.086 5.30103 2.5 5.30103H10.75Z" fill="#212B36"/>
</svg>
