<svg width="24" height="25" viewBox="0 0 24 25" fill="none" xmlns="http://www.w3.org/2000/svg">
<path d="M16.9583 11.3426L15.4234 12.8775C14.9506 13.3503 14.7453 14.0282 14.8765 14.6839L15.1999 16.301L15.2455 16.5291C15.3421 17.0121 14.8158 17.3775 14.397 17.1183L13.0526 16.286C12.4076 15.8867 11.5922 15.8867 10.9472 16.286L9.60276 17.1183C9.18398 17.3775 8.65768 17.0121 8.75427 16.5291L8.79989 16.301L9.12331 14.6839C9.25445 14.0282 9.04921 13.3503 8.57636 12.8775L6.99989 11.301C6.63087 10.932 6.89222 10.301 7.4141 10.301H7.49989H8.9412C9.77786 10.301 10.5261 9.78019 10.8167 8.99561L11.4443 7.30098C11.6353 6.78541 12.3645 6.78541 12.5555 7.30098L13.1831 8.99561C13.4737 9.78019 14.2219 10.301 15.0586 10.301H16.4999H16.5269C17.0704 10.301 17.3427 10.9582 16.9583 11.3426Z" stroke="#212B36" stroke-width="1.5" stroke-linejoin="round"/>
<path d="M3 12.301C3 4.88953 4.5885 3.30103 12 3.30103C19.4115 3.30103 21 4.88953 21 12.301C21 19.7125 19.4115 21.301 12 21.301C4.5885 21.301 3 19.7125 3 12.301Z" stroke="#212B36" stroke-width="1.5"/>
</svg>
