<svg width="22" height="23" viewBox="0 0 22 23" fill="none" xmlns="http://www.w3.org/2000/svg">
<path d="M18.6815 8.1568L17.554 9.85263C18.6585 12.0555 18.5828 14.6659 17.3524 16.801H4.64735C3.03081 13.9966 3.44412 10.4641 5.66438 8.10861C7.88463 5.75315 11.3866 5.13199 14.2815 6.58013L15.9774 5.45263C12.4242 3.1742 7.77447 3.6166 4.71472 6.52423C1.65498 9.43185 0.976247 14.053 3.07069 17.7176C3.3962 18.2815 3.99632 18.6304 4.64735 18.6343H17.3432C18.0008 18.6369 18.6094 18.2871 18.9382 17.7176C20.6603 14.7345 20.5647 11.0378 18.6907 8.14763L18.6815 8.1568Z" fill="#212B36"/>
<path d="M9.70761 14.4269C10.0515 14.7712 10.5181 14.9646 11.0047 14.9646C11.4913 14.9646 11.9579 14.7712 12.3018 14.4269L17.4901 6.64441L9.70761 11.8327C9.36336 12.1766 9.16992 12.6432 9.16992 13.1298C9.16992 13.6164 9.36336 14.083 9.70761 14.4269Z" fill="#212B36"/>
</svg>
