<svg width="22" height="23" viewBox="0 0 22 23" fill="none" xmlns="http://www.w3.org/2000/svg">
<path d="M11.1377 15.426V17.351" stroke="#212B36" stroke-width="1.375" stroke-linecap="round" stroke-linejoin="round"/>
<path d="M6.5542 20.4677H15.7208V19.551C15.7208 18.5427 14.8958 17.7177 13.8875 17.7177H8.38753C7.3792 17.7177 6.5542 18.5427 6.5542 19.551V20.4677Z" stroke="#212B36" stroke-width="1.375" stroke-miterlimit="10"/>
<path d="M5.6377 20.4677H16.6377" stroke="#212B36" stroke-width="1.375" stroke-linecap="round" stroke-linejoin="round"/>
<path d="M11.0002 14.9677C7.45266 14.9677 4.5835 12.0986 4.5835 8.55107V5.80107C4.5835 3.77523 6.22433 2.1344 8.25016 2.1344H13.7502C15.776 2.1344 17.4168 3.77523 17.4168 5.80107V8.55107C17.4168 12.0986 14.5477 14.9677 11.0002 14.9677Z" stroke="#212B36" stroke-width="1.375" stroke-linecap="round" stroke-linejoin="round"/>
<path d="M5.01428 10.9801C4.32678 10.7601 3.72178 10.3568 3.24512 9.88014C2.42012 8.96345 1.87012 7.86345 1.87012 6.58012C1.87012 5.29679 2.87845 4.28845 4.16178 4.28845H4.75762C4.57428 4.71012 4.48262 5.17762 4.48262 5.66345V8.41345C4.48262 9.33012 4.67512 10.1918 5.01428 10.9801Z" stroke="#212B36" stroke-width="1.375" stroke-linecap="round" stroke-linejoin="round"/>
<path d="M16.9858 10.9801C17.6733 10.7601 18.2783 10.3568 18.755 9.88014C19.58 8.96345 20.13 7.86345 20.13 6.58012C20.13 5.29679 19.1217 4.28845 17.8383 4.28845H17.2425C17.4258 4.71012 17.5175 5.17762 17.5175 5.66345V8.41345C17.5175 9.33012 17.325 10.1918 16.9858 10.9801Z" stroke="#212B36" stroke-width="1.375" stroke-linecap="round" stroke-linejoin="round"/>
</svg>
