<svg width="22" height="23" viewBox="0 0 22 23" fill="none" xmlns="http://www.w3.org/2000/svg">
<path fill-rule="evenodd" clip-rule="evenodd" d="M11 0.301025C4.92879 0.301025 0 5.22981 0 11.301C0 17.3722 4.92879 22.301 11 22.301C17.0712 22.301 22 17.3722 22 11.301C22 5.22981 17.0712 0.301025 11 0.301025ZM11 1.87245C16.2038 1.87245 20.4286 6.09724 20.4286 11.301C20.4286 16.5048 16.2038 20.7296 11 20.7296C5.79621 20.7296 1.57143 16.5048 1.57143 11.301C1.57143 6.09724 5.79621 1.87245 11 1.87245ZM14.4226 12.8976C15.2759 13.0524 15.8439 13.8703 15.6891 14.7236C15.5344 15.5769 14.7164 16.145 13.8631 15.9902C13.0099 15.8354 12.4418 15.0175 12.5966 14.1642C12.7514 13.3109 13.5693 12.7428 14.4226 12.8976ZM14.3731 6.81695L6.51593 14.6741C6.2095 14.9805 6.2095 15.4787 6.51593 15.7851C6.82236 16.0915 7.3205 16.0915 7.62693 15.7851L15.4841 7.92795C15.7905 7.62153 15.7905 7.12338 15.4841 6.81695C15.1776 6.51052 14.6795 6.51052 14.3731 6.81695ZM8.13686 6.61188C8.99014 6.76667 9.55822 7.5846 9.40343 8.43788C9.24864 9.29117 8.43071 9.85924 7.57743 9.70445C6.72414 9.54967 6.15607 8.73174 6.31086 7.87845C6.46564 7.02517 7.28357 6.4571 8.13686 6.61188Z" fill="#212B36"/>
</svg>
