<svg width="24" height="24" viewBox="0 0 24 24" fill="none" xmlns="http://www.w3.org/2000/svg">
<g clip-path="url(#clip0_34_1096)">
<path data-stroke="true" d="M11.9998 15C13.6566 15 14.9998 13.6569 14.9998 12C14.9998 10.3431 13.6566 9 11.9998 9C10.3429 9 8.99976 10.3431 8.99976 12C8.99976 13.6569 10.3429 15 11.9998 15Z" stroke="#1E232A" stroke-width="2" stroke-linecap="round" stroke-linejoin="round"/>
<path data-stroke="true" d="M19.3998 15C19.2666 15.3016 19.2269 15.6362 19.2858 15.9606C19.3446 16.285 19.4992 16.5843 19.7298 16.82L19.7898 16.88C19.9757 17.0657 20.1232 17.2863 20.2239 17.5291C20.3245 17.7719 20.3763 18.0322 20.3763 18.295C20.3763 18.5578 20.3245 18.8181 20.2239 19.0609C20.1232 19.3037 19.9757 19.5243 19.7898 19.71C19.604 19.896 19.3834 20.0435 19.1406 20.1441C18.8978 20.2448 18.6376 20.2966 18.3748 20.2966C18.1119 20.2966 17.8517 20.2448 17.6089 20.1441C17.3661 20.0435 17.1455 19.896 16.9598 19.71L16.8998 19.65C16.6641 19.4195 16.3647 19.2648 16.0403 19.206C15.7159 19.1472 15.3814 19.1869 15.0798 19.32C14.784 19.4468 14.5317 19.6572 14.3541 19.9255C14.1764 20.1938 14.081 20.5082 14.0798 20.83V21C14.0798 21.5304 13.869 22.0391 13.494 22.4142C13.1189 22.7893 12.6102 23 12.0798 23C11.5493 23 11.0406 22.7893 10.6655 22.4142C10.2905 22.0391 10.0798 21.5304 10.0798 21V20.91C10.072 20.579 9.96487 20.258 9.77227 19.9887C9.57966 19.7194 9.31049 19.5143 8.99976 19.4C8.69814 19.2669 8.36356 19.2272 8.03917 19.286C7.71477 19.3448 7.41543 19.4995 7.17976 19.73L7.11976 19.79C6.93401 19.976 6.71343 20.1235 6.47064 20.2241C6.22784 20.3248 5.96759 20.3766 5.70476 20.3766C5.44192 20.3766 5.18167 20.3248 4.93888 20.2241C4.69608 20.1235 4.4755 19.976 4.28976 19.79C4.1038 19.6043 3.95628 19.3837 3.85564 19.1409C3.75499 18.8981 3.70318 18.6378 3.70318 18.375C3.70318 18.1122 3.75499 17.8519 3.85564 17.6091C3.95628 17.3663 4.1038 17.1457 4.28976 16.96L4.34976 16.9C4.58029 16.6643 4.73494 16.365 4.79376 16.0406C4.85258 15.7162 4.81287 15.3816 4.67976 15.08C4.55299 14.7842 4.34251 14.532 4.07422 14.3543C3.80593 14.1766 3.49154 14.0813 3.16976 14.08H2.99976C2.46932 14.08 1.96062 13.8693 1.58554 13.4942C1.21047 13.1191 0.999756 12.6104 0.999756 12.08C0.999756 11.5496 1.21047 11.0409 1.58554 10.6658C1.96062 10.2907 2.46932 10.08 2.99976 10.08H3.08976C3.42075 10.0723 3.74176 9.96512 4.01105 9.77251C4.28035 9.5799 4.48547 9.31074 4.59976 9C4.73287 8.69838 4.77258 8.36381 4.71376 8.03941C4.65494 7.71502 4.50029 7.41568 4.26976 7.18L4.20976 7.12C4.0238 6.93425 3.87629 6.71368 3.77564 6.47088C3.67499 6.22808 3.62318 5.96783 3.62318 5.705C3.62318 5.44217 3.67499 5.18192 3.77564 4.93912C3.87629 4.69632 4.0238 4.47575 4.20976 4.29C4.3955 4.10405 4.61608 3.95653 4.85888 3.85588C5.10167 3.75523 5.36192 3.70343 5.62476 3.70343C5.88759 3.70343 6.14784 3.75523 6.39064 3.85588C6.63343 3.95653 6.85401 4.10405 7.03976 4.29L7.09976 4.35C7.33543 4.58054 7.63477 4.73519 7.95917 4.794C8.28356 4.85282 8.61814 4.81312 8.91976 4.68H8.99976C9.29553 4.55324 9.54777 4.34276 9.72545 4.07447C9.90312 3.80618 9.99847 3.49179 9.99976 3.17V3C9.99976 2.46957 10.2105 1.96086 10.5855 1.58579C10.9606 1.21071 11.4693 1 11.9998 1C12.5302 1 13.0389 1.21071 13.414 1.58579C13.789 1.96086 13.9998 2.46957 13.9998 3V3.09C14.001 3.41179 14.0964 3.72618 14.2741 3.99447C14.4517 4.26276 14.704 4.47324 14.9998 4.6C15.3014 4.73312 15.6359 4.77282 15.9603 4.714C16.2847 4.65519 16.5841 4.50054 16.8198 4.27L16.8798 4.21C17.0655 4.02405 17.2861 3.87653 17.5289 3.77588C17.7717 3.67523 18.0319 3.62343 18.2948 3.62343C18.5576 3.62343 18.8178 3.67523 19.0606 3.77588C19.3034 3.87653 19.524 4.02405 19.7098 4.21C19.8957 4.39575 20.0432 4.61632 20.1439 4.85912C20.2445 5.10192 20.2963 5.36217 20.2963 5.625C20.2963 5.88783 20.2445 6.14808 20.1439 6.39088C20.0432 6.63368 19.8957 6.85425 19.7098 7.04L19.6498 7.1C19.4192 7.33568 19.2646 7.63502 19.2058 7.95941C19.1469 8.28381 19.1866 8.61838 19.3198 8.92V9C19.4465 9.29577 19.657 9.54802 19.9253 9.72569C20.1936 9.90337 20.508 9.99872 20.8298 10H20.9998C21.5302 10 22.0389 10.2107 22.414 10.5858C22.789 10.9609 22.9998 11.4696 22.9998 12C22.9998 12.5304 22.789 13.0391 22.414 13.4142C22.0389 13.7893 21.5302 14 20.9998 14H20.9098C20.588 14.0013 20.2736 14.0966 20.0053 14.2743C19.737 14.452 19.5265 14.7042 19.3998 15V15Z" stroke="#1E232A" stroke-width="2" stroke-linecap="round" stroke-linejoin="round"/>
</g>
<defs>
<clipPath id="clip0_34_1096">
<rect width="24" height="24" fill="white" transform="translate(-0.000244141)"/>
</clipPath>
</defs>
</svg>
